# 3ds Max Wavefront OBJ Exporter v0.97b - (c)2007 guruware
# File Created: 05.05.2015 16:33:28

#
# object Cylinder018
#

v  -6.7764 0.0000 11.3314
v  -6.8086 0.0000 11.2114
v  -6.8965 0.0000 11.1234
v  -7.0166 0.0000 11.0913
v  -7.1367 0.0000 11.1234
v  -7.2246 0.0000 11.2114
v  -7.2568 0.0000 11.3314
v  -7.2246 0.0000 11.4515
v  -7.1367 0.0000 11.5394
v  -7.0166 0.0000 11.5716
v  -6.8965 0.0000 11.5394
v  -6.8086 0.0000 11.4515
v  -6.7695 0.0562 11.3314
v  -6.8026 0.0562 11.2079
v  -6.8930 0.0562 11.1174
v  -7.0166 0.0562 11.0843
v  -7.1402 0.0562 11.1174
v  -7.2306 0.0562 11.2079
v  -7.2637 0.0562 11.3314
v  -7.2306 0.0562 11.4550
v  -7.1402 0.0562 11.5455
v  -7.0166 0.0562 11.5786
v  -6.8930 0.0562 11.5455
v  -6.8026 0.0562 11.4550
v  -6.7551 0.7471 11.3314
v  -6.7901 0.7471 11.2007
v  -6.8858 0.7471 11.1050
v  -7.0166 0.7471 11.0699
v  -7.1473 0.7471 11.1050
v  -7.2430 0.7471 11.2007
v  -7.2781 0.7471 11.3314
v  -7.2430 0.7471 11.4622
v  -7.1473 0.7471 11.5579
v  -7.0166 0.7471 11.5929
v  -6.8858 0.7471 11.5579
v  -6.7901 0.7471 11.4622
v  -6.7700 0.8807 11.3314
v  -6.8030 0.8807 11.2081
v  -6.8933 0.8807 11.1179
v  -7.0166 0.8807 11.0849
v  -7.1399 0.8807 11.1179
v  -7.2301 0.8807 11.2081
v  -7.2632 0.8807 11.3314
v  -7.2301 0.8807 11.4547
v  -7.1399 0.8807 11.5450
v  -7.0166 0.8807 11.5780
v  -6.8933 0.8807 11.5450
v  -6.8030 0.8807 11.4547
v  -6.8670 1.0446 11.3314
v  -6.8871 1.0446 11.2566
v  -6.9418 1.0446 11.2019
v  -7.0166 1.0446 11.1819
v  -7.0914 1.0446 11.2019
v  -7.1461 1.0446 11.2566
v  -7.1662 1.0446 11.3314
v  -7.1461 1.0446 11.4062
v  -7.0914 1.0446 11.4610
v  -7.0166 1.0446 11.4810
v  -6.9418 1.0446 11.4610
v  -6.8871 1.0446 11.4062
v  -6.8961 1.3517 11.3314
v  -6.9123 1.3517 11.2712
v  -6.9564 1.3517 11.2271
v  -7.0166 1.3517 11.2110
v  -7.0768 1.3517 11.2271
v  -7.1209 1.3517 11.2712
v  -7.1370 1.3517 11.3314
v  -7.1209 1.3517 11.3917
v  -7.0768 1.3517 11.4357
v  -7.0166 1.3517 11.4519
v  -6.9564 1.3517 11.4357
v  -6.9123 1.3517 11.3917
v  -6.8880 1.4200 11.3314
v  -6.9052 1.4200 11.2671
v  -6.9523 1.4200 11.2201
v  -7.0166 1.4200 11.2028
v  -7.0809 1.4200 11.2201
v  -7.1280 1.4200 11.2671
v  -7.1452 1.4200 11.3314
v  -7.1280 1.4200 11.3957
v  -7.0809 1.4200 11.4428
v  -7.0166 1.4200 11.4600
v  -6.9523 1.4200 11.4428
v  -6.9052 1.4200 11.3957
v  -6.9276 1.4393 11.3314
v  -6.9395 1.4393 11.2869
v  -6.9721 1.4393 11.2544
v  -7.0166 1.4393 11.2424
v  -7.0611 1.4393 11.2544
v  -7.0937 1.4393 11.2869
v  -7.1056 1.4393 11.3314
v  -7.0937 1.4393 11.3759
v  -7.0611 1.4393 11.4085
v  -7.0166 1.4393 11.4204
v  -6.9721 1.4393 11.4085
v  -6.9395 1.4393 11.3759
v  -6.8705 0.6987 11.3314
v  -6.8901 0.6987 11.2584
v  -6.9435 0.6987 11.2049
v  -7.0166 0.6987 11.1853
v  -7.0896 0.6987 11.2049
v  -7.1431 0.6987 11.2584
v  -7.1627 0.6987 11.3314
v  -7.1431 0.6987 11.4045
v  -7.0896 0.6987 11.4579
v  -7.0166 0.6987 11.4775
v  -6.9435 0.6987 11.4579
v  -6.8901 0.6987 11.4045
# 108 vertices

vn 0.7158 -0.6983 0.0000
vn 0.6199 -0.6983 -0.3579
vn 0.8638 -0.0714 -0.4987
vn 0.9974 -0.0714 0.0000
vn 0.6199 -0.6983 -0.3579
vn 0.3579 -0.6983 -0.6199
vn 0.4987 -0.0714 -0.8638
vn 0.8638 -0.0714 -0.4987
vn 0.3579 -0.6983 -0.6199
vn -0.0000 -0.6983 -0.7158
vn -0.0000 -0.0714 -0.9974
vn 0.4987 -0.0714 -0.8638
vn -0.0000 -0.6983 -0.7158
vn -0.3579 -0.6983 -0.6199
vn -0.4987 -0.0714 -0.8638
vn -0.0000 -0.0714 -0.9974
vn -0.3579 -0.6983 -0.6199
vn -0.6199 -0.6983 -0.3579
vn -0.8638 -0.0714 -0.4987
vn -0.4987 -0.0714 -0.8638
vn -0.6199 -0.6983 -0.3579
vn -0.7158 -0.6983 -0.0000
vn -0.9974 -0.0714 -0.0000
vn -0.8638 -0.0714 -0.4987
vn -0.7158 -0.6983 -0.0000
vn -0.6199 -0.6983 0.3579
vn -0.8638 -0.0714 0.4987
vn -0.9974 -0.0714 -0.0000
vn -0.6199 -0.6983 0.3579
vn -0.3579 -0.6983 0.6199
vn -0.4987 -0.0714 0.8638
vn -0.8638 -0.0714 0.4987
vn -0.3579 -0.6983 0.6199
vn -0.0000 -0.6983 0.7158
vn -0.0000 -0.0714 0.9974
vn -0.4987 -0.0714 0.8638
vn -0.0000 -0.6983 0.7158
vn 0.3579 -0.6983 0.6199
vn 0.4987 -0.0714 0.8638
vn -0.0000 -0.0714 0.9974
vn 0.3579 -0.6983 0.6199
vn 0.6199 -0.6983 0.3579
vn 0.8638 -0.0714 0.4987
vn 0.4987 -0.0714 0.8638
vn 0.6199 -0.6983 0.3579
vn 0.7158 -0.6983 0.0000
vn 0.9974 -0.0714 0.0000
vn 0.8638 -0.0714 0.4987
vn 0.3579 -0.6983 0.6199
vn -0.0000 -0.6983 0.7158
vn 0.7158 -0.6983 0.0000
vn 0.6199 -0.6983 0.3579
vn 0.9974 -0.0714 0.0000
vn 0.8638 -0.0714 -0.4987
vn 0.8652 0.0446 -0.4995
vn 0.9990 0.0446 0.0000
vn 0.8638 -0.0714 -0.4987
vn 0.4987 -0.0714 -0.8638
vn 0.4995 0.0446 -0.8652
vn 0.8652 0.0446 -0.4995
vn 0.4987 -0.0714 -0.8638
vn -0.0000 -0.0714 -0.9974
vn -0.0000 0.0446 -0.9990
vn 0.4995 0.0446 -0.8652
vn -0.0000 -0.0714 -0.9974
vn -0.4987 -0.0714 -0.8638
vn -0.4995 0.0446 -0.8652
vn -0.0000 0.0446 -0.9990
vn -0.4987 -0.0714 -0.8638
vn -0.8638 -0.0714 -0.4987
vn -0.8652 0.0446 -0.4995
vn -0.4995 0.0446 -0.8652
vn -0.8638 -0.0714 -0.4987
vn -0.9974 -0.0714 -0.0000
vn -0.9990 0.0446 -0.0000
vn -0.8652 0.0446 -0.4995
vn -0.9974 -0.0714 -0.0000
vn -0.8638 -0.0714 0.4987
vn -0.8652 0.0446 0.4995
vn -0.9990 0.0446 -0.0000
vn -0.8638 -0.0714 0.4987
vn -0.4987 -0.0714 0.8638
vn -0.4995 0.0446 0.8652
vn -0.8652 0.0446 0.4995
vn -0.4987 -0.0714 0.8638
vn -0.0000 -0.0714 0.9974
vn -0.0000 0.0446 0.9990
vn -0.4995 0.0446 0.8652
vn -0.0000 -0.0714 0.9974
vn 0.4987 -0.0714 0.8638
vn 0.4995 0.0446 0.8652
vn -0.0000 0.0446 0.9990
vn 0.4987 -0.0714 0.8638
vn 0.8638 -0.0714 0.4987
vn 0.8652 0.0446 0.4995
vn 0.4995 0.0446 0.8652
vn 0.8638 -0.0714 0.4987
vn 0.9974 -0.0714 0.0000
vn 0.9990 0.0446 0.0000
vn 0.8652 0.0446 0.4995
vn 0.9990 0.0446 0.0000
vn 0.8652 0.0446 -0.4995
vn 0.8241 0.3073 -0.4758
vn 0.9516 0.3073 0.0000
vn 0.8652 0.0446 -0.4995
vn 0.4995 0.0446 -0.8652
vn 0.4758 0.3073 -0.8241
vn 0.8241 0.3073 -0.4758
vn 0.4995 0.0446 -0.8652
vn -0.0000 0.0446 -0.9990
vn -0.0000 0.3073 -0.9516
vn 0.4758 0.3073 -0.8241
vn -0.0000 0.0446 -0.9990
vn -0.4995 0.0446 -0.8652
vn -0.4758 0.3073 -0.8241
vn -0.0000 0.3073 -0.9516
vn -0.4995 0.0446 -0.8652
vn -0.8652 0.0446 -0.4995
vn -0.8241 0.3073 -0.4758
vn -0.4758 0.3073 -0.8241
vn -0.8652 0.0446 -0.4995
vn -0.9990 0.0446 -0.0000
vn -0.9516 0.3073 -0.0000
vn -0.8241 0.3073 -0.4758
vn -0.9990 0.0446 -0.0000
vn -0.8652 0.0446 0.4995
vn -0.8241 0.3073 0.4758
vn -0.9516 0.3073 -0.0000
vn -0.8652 0.0446 0.4995
vn -0.4995 0.0446 0.8652
vn -0.4758 0.3073 0.8241
vn -0.8241 0.3073 0.4758
vn -0.4995 0.0446 0.8652
vn -0.0000 0.0446 0.9990
vn -0.0000 0.3073 0.9516
vn -0.4758 0.3073 0.8241
vn -0.0000 0.0446 0.9990
vn 0.4995 0.0446 0.8652
vn 0.4758 0.3073 0.8241
vn -0.0000 0.3073 0.9516
vn 0.4995 0.0446 0.8652
vn 0.8652 0.0446 0.4995
vn 0.8241 0.3073 0.4758
vn 0.4758 0.3073 0.8241
vn 0.8652 0.0446 0.4995
vn 0.9990 0.0446 0.0000
vn 0.9516 0.3073 0.0000
vn 0.8241 0.3073 0.4758
vn 0.9516 0.3073 0.0000
vn 0.8241 0.3073 -0.4758
vn 0.8203 0.3205 -0.4736
vn 0.9472 0.3205 0.0000
vn 0.8241 0.3073 -0.4758
vn 0.4758 0.3073 -0.8241
vn 0.4736 0.3205 -0.8203
vn 0.8203 0.3205 -0.4736
vn 0.4758 0.3073 -0.8241
vn -0.0000 0.3073 -0.9516
vn -0.0000 0.3205 -0.9472
vn 0.4736 0.3205 -0.8203
vn -0.0000 0.3073 -0.9516
vn -0.4758 0.3073 -0.8241
vn -0.4736 0.3205 -0.8203
vn -0.0000 0.3205 -0.9472
vn -0.4758 0.3073 -0.8241
vn -0.8241 0.3073 -0.4758
vn -0.8203 0.3205 -0.4736
vn -0.4736 0.3205 -0.8203
vn -0.8241 0.3073 -0.4758
vn -0.9516 0.3073 -0.0000
vn -0.9472 0.3205 -0.0000
vn -0.8203 0.3205 -0.4736
vn -0.9516 0.3073 -0.0000
vn -0.8241 0.3073 0.4758
vn -0.8203 0.3205 0.4736
vn -0.9472 0.3205 -0.0000
vn -0.8241 0.3073 0.4758
vn -0.4758 0.3073 0.8241
vn -0.4736 0.3205 0.8203
vn -0.8203 0.3205 0.4736
vn -0.4758 0.3073 0.8241
vn -0.0000 0.3073 0.9516
vn -0.0000 0.3205 0.9472
vn -0.4736 0.3205 0.8203
vn -0.0000 0.3073 0.9516
vn 0.4758 0.3073 0.8241
vn 0.4736 0.3205 0.8203
vn -0.0000 0.3205 0.9472
vn 0.4758 0.3073 0.8241
vn 0.8241 0.3073 0.4758
vn 0.8203 0.3205 0.4736
vn 0.4736 0.3205 0.8203
vn 0.8241 0.3073 0.4758
vn 0.9516 0.3073 0.0000
vn 0.9472 0.3205 0.0000
vn 0.8203 0.3205 0.4736
vn 0.9472 0.3205 0.0000
vn 0.8203 0.3205 -0.4736
vn 0.8660 -0.0124 -0.5000
vn 0.9999 -0.0124 0.0000
vn 0.8203 0.3205 -0.4736
vn 0.4736 0.3205 -0.8203
vn 0.5000 -0.0124 -0.8660
vn 0.8660 -0.0124 -0.5000
vn 0.4736 0.3205 -0.8203
vn -0.0000 0.3205 -0.9472
vn -0.0000 -0.0124 -0.9999
vn 0.5000 -0.0124 -0.8660
vn -0.0000 0.3205 -0.9472
vn -0.4736 0.3205 -0.8203
vn -0.5000 -0.0124 -0.8660
vn -0.0000 -0.0124 -0.9999
vn -0.4736 0.3205 -0.8203
vn -0.8203 0.3205 -0.4736
vn -0.8660 -0.0124 -0.5000
vn -0.5000 -0.0124 -0.8660
vn -0.8203 0.3205 -0.4736
vn -0.9472 0.3205 -0.0000
vn -0.9999 -0.0124 -0.0000
vn -0.8660 -0.0124 -0.5000
vn -0.9472 0.3205 -0.0000
vn -0.8203 0.3205 0.4736
vn -0.8660 -0.0124 0.5000
vn -0.9999 -0.0124 -0.0000
vn -0.8203 0.3205 0.4736
vn -0.4736 0.3205 0.8203
vn -0.5000 -0.0124 0.8660
vn -0.8660 -0.0124 0.5000
vn -0.4736 0.3205 0.8203
vn -0.0000 0.3205 0.9472
vn -0.0000 -0.0124 0.9999
vn -0.5000 -0.0124 0.8660
vn -0.0000 0.3205 0.9472
vn 0.4736 0.3205 0.8203
vn 0.5000 -0.0124 0.8660
vn -0.0000 -0.0124 0.9999
vn 0.4736 0.3205 0.8203
vn 0.8203 0.3205 0.4736
vn 0.8660 -0.0124 0.5000
vn 0.5000 -0.0124 0.8660
vn 0.8203 0.3205 0.4736
vn 0.9472 0.3205 0.0000
vn 0.9999 -0.0124 0.0000
vn 0.8660 -0.0124 0.5000
vn 0.9999 -0.0124 0.0000
vn 0.8660 -0.0124 -0.5000
vn 0.7768 0.4421 -0.4485
vn 0.8969 0.4421 0.0000
vn 0.8660 -0.0124 -0.5000
vn 0.5000 -0.0124 -0.8660
vn 0.4485 0.4421 -0.7768
vn 0.7768 0.4421 -0.4485
vn 0.5000 -0.0124 -0.8660
vn -0.0000 -0.0124 -0.9999
vn -0.0000 0.4421 -0.8969
vn 0.4485 0.4421 -0.7768
vn -0.0000 -0.0124 -0.9999
vn -0.5000 -0.0124 -0.8660
vn -0.4485 0.4421 -0.7768
vn -0.0000 0.4421 -0.8969
vn -0.5000 -0.0124 -0.8660
vn -0.8660 -0.0124 -0.5000
vn -0.7768 0.4421 -0.4485
vn -0.4485 0.4421 -0.7768
vn -0.8660 -0.0124 -0.5000
vn -0.9999 -0.0124 -0.0000
vn -0.8969 0.4421 -0.0000
vn -0.7768 0.4421 -0.4485
vn -0.9999 -0.0124 -0.0000
vn -0.8660 -0.0124 0.5000
vn -0.7768 0.4421 0.4485
vn -0.8969 0.4421 -0.0000
vn -0.8660 -0.0124 0.5000
vn -0.5000 -0.0124 0.8660
vn -0.4485 0.4421 0.7768
vn -0.7768 0.4421 0.4485
vn -0.5000 -0.0124 0.8660
vn -0.0000 -0.0124 0.9999
vn -0.0000 0.4421 0.8969
vn -0.4485 0.4421 0.7768
vn -0.0000 -0.0124 0.9999
vn 0.5000 -0.0124 0.8660
vn 0.4485 0.4421 0.7768
vn -0.0000 0.4421 0.8969
vn 0.5000 -0.0124 0.8660
vn 0.8660 -0.0124 0.5000
vn 0.7768 0.4421 0.4485
vn 0.4485 0.4421 0.7768
vn 0.8660 -0.0124 0.5000
vn 0.9999 -0.0124 0.0000
vn 0.8969 0.4421 0.0000
vn 0.7768 0.4421 0.4485
vn 0.8969 0.4421 0.0000
vn 0.7768 0.4421 -0.4485
vn -0.3867 0.8948 0.2233
vn -0.4465 0.8948 -0.0000
vn 0.7768 0.4421 -0.4485
vn 0.4485 0.4421 -0.7768
vn -0.2233 0.8948 0.3867
vn -0.3867 0.8948 0.2233
vn 0.4485 0.4421 -0.7768
vn -0.0000 0.4421 -0.8969
vn 0.0000 0.8948 0.4465
vn -0.2233 0.8948 0.3867
vn -0.0000 0.4421 -0.8969
vn -0.4485 0.4421 -0.7768
vn 0.2233 0.8948 0.3867
vn 0.0000 0.8948 0.4465
vn -0.4485 0.4421 -0.7768
vn -0.7768 0.4421 -0.4485
vn 0.3867 0.8948 0.2233
vn 0.2233 0.8948 0.3867
vn -0.7768 0.4421 -0.4485
vn -0.8969 0.4421 -0.0000
vn 0.4465 0.8948 0.0000
vn 0.3867 0.8948 0.2233
vn -0.8969 0.4421 -0.0000
vn -0.7768 0.4421 0.4485
vn 0.3867 0.8948 -0.2233
vn 0.4465 0.8948 0.0000
vn -0.7768 0.4421 0.4485
vn -0.4485 0.4421 0.7768
vn 0.2233 0.8948 -0.3867
vn 0.3867 0.8948 -0.2233
vn -0.4485 0.4421 0.7768
vn -0.0000 0.4421 0.8969
vn 0.0000 0.8948 -0.4465
vn 0.2233 0.8948 -0.3867
vn -0.0000 0.4421 0.8969
vn 0.4485 0.4421 0.7768
vn -0.2233 0.8948 -0.3867
vn 0.0000 0.8948 -0.4465
vn 0.4485 0.4421 0.7768
vn 0.7768 0.4421 0.4485
vn -0.3867 0.8948 -0.2233
vn -0.2233 0.8948 -0.3867
vn 0.7768 0.4421 0.4485
vn 0.8969 0.4421 0.0000
vn -0.4465 0.8948 -0.0000
vn -0.3867 0.8948 -0.2233
vn -0.4465 0.8948 -0.0000
vn -0.3867 0.8948 0.2233
vn -0.8635 -0.0769 0.4985
vn -0.9970 -0.0769 -0.0000
vn -0.3867 0.8948 0.2233
vn -0.2233 0.8948 0.3867
vn -0.4985 -0.0769 0.8635
vn -0.8635 -0.0769 0.4985
vn -0.2233 0.8948 0.3867
vn 0.0000 0.8948 0.4465
vn 0.0000 -0.0769 0.9970
vn -0.4985 -0.0769 0.8635
vn 0.0000 0.8948 0.4465
vn 0.2233 0.8948 0.3867
vn 0.4985 -0.0769 0.8635
vn 0.0000 -0.0769 0.9970
vn 0.2233 0.8948 0.3867
vn 0.3867 0.8948 0.2233
vn 0.8635 -0.0769 0.4985
vn 0.4985 -0.0769 0.8635
vn 0.3867 0.8948 0.2233
vn 0.4465 0.8948 0.0000
vn 0.9970 -0.0769 0.0000
vn 0.8635 -0.0769 0.4985
vn 0.4465 0.8948 0.0000
vn 0.3867 0.8948 -0.2233
vn 0.8635 -0.0769 -0.4985
vn 0.9970 -0.0769 0.0000
vn 0.3867 0.8948 -0.2233
vn 0.2233 0.8948 -0.3867
vn 0.4985 -0.0769 -0.8635
vn 0.8635 -0.0769 -0.4985
vn 0.2233 0.8948 -0.3867
vn 0.0000 0.8948 -0.4465
vn 0.0000 -0.0769 -0.9970
vn 0.4985 -0.0769 -0.8635
vn 0.0000 0.8948 -0.4465
vn -0.2233 0.8948 -0.3867
vn -0.4985 -0.0769 -0.8635
vn 0.0000 -0.0769 -0.9970
vn -0.2233 0.8948 -0.3867
vn -0.3867 0.8948 -0.2233
vn -0.8635 -0.0769 -0.4985
vn -0.4985 -0.0769 -0.8635
vn -0.3867 0.8948 -0.2233
vn -0.4465 0.8948 -0.0000
vn -0.9970 -0.0769 -0.0000
vn -0.8635 -0.0769 -0.4985
vn -0.3579 -0.6983 0.6199
vn 0.6199 -0.6983 -0.3579
vn 0.7158 -0.6983 0.0000
vn -0.0000 -0.6983 0.7158
vn -0.6199 -0.6983 0.3579
vn 0.3579 -0.6983 -0.6199
vn 0.6199 -0.6983 -0.3579
vn -0.3579 -0.6983 0.6199
vn -0.7158 -0.6983 -0.0000
vn -0.0000 -0.6983 -0.7158
vn 0.3579 -0.6983 -0.6199
vn -0.6199 -0.6983 0.3579
vn -0.6199 -0.6983 -0.3579
vn -0.3579 -0.6983 -0.6199
vn -0.0000 -0.6983 -0.7158
vn -0.7158 -0.6983 -0.0000
# 404 vertex normals

vt 0.5000 0.0000 0.9592
vt 0.7296 0.0000 0.8977
vt 0.8977 0.0000 0.7296
vt 0.5000 0.0000 0.9592
vt 0.7296 0.0000 0.8977
vt 0.8977 0.0000 0.7296
vt 0.5000 0.0000 0.0408
vt 0.7296 0.0000 0.1023
vt 0.8977 0.0000 0.2704
vt 0.5000 0.0000 0.0408
vt 0.7296 0.0000 0.1023
vt 0.8977 0.0000 0.2704
vt 0.5000 0.0391 0.9726
vt 0.7363 0.0391 0.9093
vt 0.9093 0.0391 0.7363
vt 0.5000 0.0391 0.9726
vt 0.7363 0.0391 0.9093
vt 0.9093 0.0391 0.7363
vt 0.5000 0.0391 0.0274
vt 0.7363 0.0391 0.0907
vt 0.9093 0.0391 0.2637
vt 0.5000 0.0391 0.0274
vt 0.7363 0.0391 0.0907
vt 0.9093 0.0391 0.2637
vt 0.5000 0.5191 1.0000
vt 0.7500 0.5191 0.9330
vt 0.9330 0.5191 0.7500
vt 0.5000 0.5191 1.0000
vt 0.7500 0.5191 0.9330
vt 0.9330 0.5191 0.7500
vt 0.5000 0.5191 0.0000
vt 0.7500 0.5191 0.0670
vt 0.9330 0.5191 0.2500
vt 0.5000 0.5191 0.0000
vt 0.7500 0.5191 0.0670
vt 0.9330 0.5191 0.2500
vt 0.5000 0.6119 0.9715
vt 0.7358 0.6119 0.9083
vt 0.9083 0.6119 0.7358
vt 0.5000 0.6119 0.9715
vt 0.7358 0.6119 0.9083
vt 0.9083 0.6119 0.7358
vt 0.5000 0.6119 0.0285
vt 0.7358 0.6119 0.0917
vt 0.9083 0.6119 0.2642
vt 0.5000 0.6119 0.0285
vt 0.7358 0.6119 0.0917
vt 0.9083 0.6119 0.2642
vt 0.5000 0.7258 0.7860
vt 0.6430 0.7258 0.7477
vt 0.7477 0.7258 0.6430
vt 0.5000 0.7258 0.7860
vt 0.6430 0.7258 0.7477
vt 0.7477 0.7258 0.6430
vt 0.5000 0.7258 0.2140
vt 0.6430 0.7258 0.2523
vt 0.7477 0.7258 0.3570
vt 0.5000 0.7258 0.2140
vt 0.6430 0.7258 0.2523
vt 0.7477 0.7258 0.3570
vt 0.5000 0.9391 0.7303
vt 0.6152 0.9391 0.6995
vt 0.6995 0.9391 0.6152
vt 0.5000 0.9391 0.7303
vt 0.6152 0.9391 0.6995
vt 0.6995 0.9391 0.6152
vt 0.5000 0.9391 0.2697
vt 0.6152 0.9391 0.3005
vt 0.6995 0.9391 0.3848
vt 0.5000 0.9391 0.2697
vt 0.6152 0.9391 0.3005
vt 0.6995 0.9391 0.3848
vt 0.5000 0.9866 0.7459
vt 0.6230 0.9866 0.7130
vt 0.7130 0.9866 0.6230
vt 0.5000 0.9866 0.7459
vt 0.6230 0.9866 0.7130
vt 0.7130 0.9866 0.6230
vt 0.5000 0.9866 0.2541
vt 0.6230 0.9866 0.2870
vt 0.7130 0.9866 0.3770
vt 0.5000 0.9866 0.2541
vt 0.6230 0.9866 0.2870
vt 0.7130 0.9866 0.3770
vt 0.5000 1.0000 0.6702
vt 0.5851 1.0000 0.6474
vt 0.5851 0.6474 1.0000
vt 0.5000 1.0000 0.6702
vt 0.5851 1.0000 0.6474
vt 0.3526 0.5851 1.0000
vt 0.5000 1.0000 0.3298
vt 0.5851 1.0000 0.3526
vt 0.4149 0.3526 1.0000
vt 0.5000 1.0000 0.3298
vt 0.5851 1.0000 0.3526
vt 0.6474 0.4149 1.0000
vt 0.5000 0.4854 0.7793
vt 0.3603 0.4854 0.7419
vt 0.2581 0.4854 0.6397
vt 0.5000 0.4854 0.7793
vt 0.3603 0.4854 0.7419
vt 0.2581 0.4854 0.6397
vt 0.5000 0.4854 0.2207
vt 0.3603 0.4854 0.2581
vt 0.2581 0.4854 0.3603
vt 0.5000 0.4854 0.2207
vt 0.3603 0.4854 0.2581
vt 0.2581 0.4854 0.3603
vt 0.2704 0.0000 0.8977
vt 0.2637 0.0391 0.9093
vt 0.2704 0.0000 0.1023
vt 0.2637 0.0391 0.0907
vt 0.2704 0.0000 0.1023
vt 0.2637 0.0391 0.0907
vt 0.2704 0.0000 0.8977
vt 0.2637 0.0391 0.9093
vt 0.1023 0.2704 0.0000
vt 0.2704 0.1023 0.0000
vt 0.5000 0.0408 0.0000
vt 0.0408 0.5000 0.0000
vt 0.2637 0.0391 0.9093
vt 0.2500 0.5191 0.9330
vt 0.2637 0.0391 0.0907
vt 0.2500 0.5191 0.0670
vt 0.2637 0.0391 0.0907
vt 0.2500 0.5191 0.0670
vt 0.2637 0.0391 0.9093
vt 0.2500 0.5191 0.9330
vt 0.2500 0.5191 0.9330
vt 0.2642 0.6119 0.9083
vt 0.2500 0.5191 0.0670
vt 0.2642 0.6119 0.0917
vt 0.2500 0.5191 0.0670
vt 0.2642 0.6119 0.0917
vt 0.2500 0.5191 0.9330
vt 0.2642 0.6119 0.9083
vt 0.2642 0.6119 0.9083
vt 0.3570 0.7258 0.7477
vt 0.2642 0.6119 0.0917
vt 0.3570 0.7258 0.2523
vt 0.2642 0.6119 0.0917
vt 0.3570 0.7258 0.2523
vt 0.2642 0.6119 0.9083
vt 0.3570 0.7258 0.7477
vt 0.3570 0.7258 0.7477
vt 0.3848 0.9391 0.6995
vt 0.3570 0.7258 0.2523
vt 0.3848 0.9391 0.3005
vt 0.3570 0.7258 0.2523
vt 0.3848 0.9391 0.3005
vt 0.3570 0.7258 0.7477
vt 0.3848 0.9391 0.6995
vt 0.3848 0.9391 0.6995
vt 0.3770 0.9866 0.7130
vt 0.3848 0.9391 0.3005
vt 0.3770 0.9866 0.2870
vt 0.3848 0.9391 0.3005
vt 0.3770 0.9866 0.2870
vt 0.3848 0.9391 0.6995
vt 0.3770 0.9866 0.7130
vt 0.7130 0.6230 0.9866
vt 0.6230 0.7130 0.9866
vt 0.6474 0.5851 1.0000
vt 0.3770 0.9866 0.7130
vt 0.4149 1.0000 0.6474
vt 0.3770 0.7130 0.9866
vt 0.2870 0.6230 0.9866
vt 0.4149 0.6474 1.0000
vt 0.3770 0.9866 0.2870
vt 0.4149 1.0000 0.3526
vt 0.2870 0.3770 0.9866
vt 0.3770 0.2870 0.9866
vt 0.3526 0.4149 1.0000
vt 0.3770 0.9866 0.2870
vt 0.4149 1.0000 0.3526
vt 0.6230 0.2870 0.9866
vt 0.7130 0.3770 0.9866
vt 0.5851 0.3526 1.0000
vt 0.3770 0.9866 0.7130
vt 0.4149 1.0000 0.6474
vt 0.5000 1.0000 0.6702
vt 0.4149 1.0000 0.6474
vt 0.4149 1.0000 0.6474
vt 0.3526 1.0000 0.5851
vt 0.5851 1.0000 0.6474
vt 0.5000 1.0000 0.6702
vt 0.6397 0.4854 0.7419
vt 0.5000 1.0000 0.6702
vt 0.4149 1.0000 0.6474
vt 0.4149 1.0000 0.6474
vt 0.3526 1.0000 0.5851
vt 0.5851 1.0000 0.3526
vt 0.5000 1.0000 0.3298
vt 0.6397 0.4854 0.2581
vt 0.5000 1.0000 0.3298
vt 0.4149 1.0000 0.3526
vt 0.4149 1.0000 0.3526
vt 0.3526 1.0000 0.4149
vt 0.5851 1.0000 0.3526
vt 0.5000 1.0000 0.3298
vt 0.6397 0.4854 0.2581
vt 0.5000 1.0000 0.3298
vt 0.4149 1.0000 0.3526
vt 0.4149 1.0000 0.3526
vt 0.3526 1.0000 0.4149
vt 0.5851 1.0000 0.6474
vt 0.5000 1.0000 0.6702
vt 0.6397 0.4854 0.7419
vt 0.5000 0.0408 0.0000
vt 0.7296 0.1023 0.0000
vt 0.1023 0.7296 0.0000
vt 0.0408 0.5000 0.0000
vt 0.7296 0.1023 0.0000
vt 0.8977 0.2704 0.0000
vt 0.2704 0.8977 0.0000
vt 0.1023 0.7296 0.0000
vt 0.8977 0.2704 0.0000
vt 0.9592 0.5000 0.0000
vt 0.5000 0.9592 0.0000
vt 0.2704 0.8977 0.0000
vt 0.9592 0.5000 0.0000
vt 0.8977 0.7296 0.0000
vt 0.7296 0.8977 0.0000
vt 0.5000 0.9592 0.0000
# 224 texture coords

g Cylinder018
s 1
f 1/1/1 2/2/2 14/14/3 13/13/4 
f 2/2/5 3/3/6 15/15/7 14/14/8 
f 3/109/9 4/4/10 16/16/11 15/110/12 
f 4/4/13 5/5/14 17/17/15 16/16/16 
f 5/5/17 6/6/18 18/18/19 17/17/20 
f 6/111/21 7/7/22 19/19/23 18/112/24 
f 7/7/25 8/8/26 20/20/27 19/19/28 
f 8/8/29 9/9/30 21/21/31 20/20/32 
f 9/113/33 10/10/34 22/22/35 21/114/36 
f 10/10/37 11/11/38 23/23/39 22/22/40 
f 11/11/41 12/12/42 24/24/43 23/23/44 
f 12/115/45 1/1/46 13/13/47 24/116/48 
f 11/118/49 10/119/50 1/120/51 12/117/52 
f 13/13/53 14/14/54 26/26/55 25/25/56 
f 14/14/57 15/15/58 27/27/59 26/26/60 
f 15/121/61 16/16/62 28/28/63 27/122/64 
f 16/16/65 17/17/66 29/29/67 28/28/68 
f 17/17/69 18/18/70 30/30/71 29/29/72 
f 18/123/73 19/19/74 31/31/75 30/124/76 
f 19/19/77 20/20/78 32/32/79 31/31/80 
f 20/20/81 21/21/82 33/33/83 32/32/84 
f 21/125/85 22/22/86 34/34/87 33/126/88 
f 22/22/89 23/23/90 35/35/91 34/34/92 
f 23/23/93 24/24/94 36/36/95 35/35/96 
f 24/127/97 13/13/98 25/25/99 36/128/100 
f 25/25/101 26/26/102 38/38/103 37/37/104 
f 26/26/105 27/27/106 39/39/107 38/38/108 
f 27/129/109 28/28/110 40/40/111 39/130/112 
f 28/28/113 29/29/114 41/41/115 40/40/116 
f 29/29/117 30/30/118 42/42/119 41/41/120 
f 30/131/121 31/31/122 43/43/123 42/132/124 
f 31/31/125 32/32/126 44/44/127 43/43/128 
f 32/32/129 33/33/130 45/45/131 44/44/132 
f 33/133/133 34/34/134 46/46/135 45/134/136 
f 34/34/137 35/35/138 47/47/139 46/46/140 
f 35/35/141 36/36/142 48/48/143 47/47/144 
f 36/135/145 25/25/146 37/37/147 48/136/148 
f 37/37/149 38/38/150 50/50/151 49/49/152 
f 38/38/153 39/39/154 51/51/155 50/50/156 
f 39/137/157 40/40/158 52/52/159 51/138/160 
f 40/40/161 41/41/162 53/53/163 52/52/164 
f 41/41/165 42/42/166 54/54/167 53/53/168 
f 42/139/169 43/43/170 55/55/171 54/140/172 
f 43/43/173 44/44/174 56/56/175 55/55/176 
f 44/44/177 45/45/178 57/57/179 56/56/180 
f 45/141/181 46/46/182 58/58/183 57/142/184 
f 46/46/185 47/47/186 59/59/187 58/58/188 
f 47/47/189 48/48/190 60/60/191 59/59/192 
f 48/143/193 37/37/194 49/49/195 60/144/196 
f 49/49/197 50/50/198 62/62/199 61/61/200 
f 50/50/201 51/51/202 63/63/203 62/62/204 
f 51/145/205 52/52/206 64/64/207 63/146/208 
f 52/52/209 53/53/210 65/65/211 64/64/212 
f 53/53/213 54/54/214 66/66/215 65/65/216 
f 54/147/217 55/55/218 67/67/219 66/148/220 
f 55/55/221 56/56/222 68/68/223 67/67/224 
f 56/56/225 57/57/226 69/69/227 68/68/228 
f 57/149/229 58/58/230 70/70/231 69/150/232 
f 58/58/233 59/59/234 71/71/235 70/70/236 
f 59/59/237 60/60/238 72/72/239 71/71/240 
f 60/151/241 49/49/242 61/61/243 72/152/244 
f 61/61/245 62/62/246 74/74/247 73/73/248 
f 62/62/249 63/63/250 75/75/251 74/74/252 
f 63/153/253 64/64/254 76/76/255 75/154/256 
f 64/64/257 65/65/258 77/77/259 76/76/260 
f 65/65/261 66/66/262 78/78/263 77/77/264 
f 66/155/265 67/67/266 79/79/267 78/156/268 
f 67/67/269 68/68/270 80/80/271 79/79/272 
f 68/68/273 69/69/274 81/81/275 80/80/276 
f 69/157/277 70/70/278 82/82/279 81/158/280 
f 70/70/281 71/71/282 83/83/283 82/82/284 
f 71/71/285 72/72/286 84/84/287 83/83/288 
f 72/159/289 61/61/290 73/73/291 84/160/292 
f 73/73/293 74/74/294 86/86/295 85/85/296 
f 74/161/297 75/162/298 87/87/299 86/163/300 
f 75/164/301 76/76/302 88/88/303 87/165/304 
f 76/76/305 77/77/306 89/89/307 88/88/308 
f 77/166/309 78/167/310 90/90/311 89/168/312 
f 78/169/313 79/79/314 91/91/315 90/170/316 
f 79/79/317 80/80/318 92/92/319 91/91/320 
f 80/171/321 81/172/322 93/93/323 92/173/324 
f 81/174/325 82/82/326 94/94/327 93/175/328 
f 82/82/329 83/83/330 95/95/331 94/94/332 
f 83/176/333 84/177/334 96/96/335 95/178/336 
f 84/179/337 73/73/338 85/85/339 96/180/340 
f 85/181/341 86/182/342 98/98/343 97/97/344 
f 86/183/345 87/184/346 99/99/347 98/98/348 
f 87/185/349 88/186/350 100/100/351 99/187/352 
f 88/188/353 89/189/354 101/101/355 100/100/356 
f 89/190/357 90/191/358 102/102/359 101/101/360 
f 90/192/361 91/193/362 103/103/363 102/194/364 
f 91/195/365 92/196/366 104/104/367 103/103/368 
f 92/197/369 93/198/370 105/105/371 104/104/372 
f 93/199/373 94/200/374 106/106/375 105/201/376 
f 94/202/377 95/203/378 107/107/379 106/106/380 
f 95/204/381 96/205/382 108/108/383 107/107/384 
f 96/206/385 85/207/386 97/97/387 108/208/388 
f 9/210/389 2/211/390 1/212/391 10/209/392 
f 8/214/393 3/215/394 2/216/395 9/213/396 
f 7/218/397 4/219/398 3/220/399 8/217/400 
f 6/222/401 5/223/402 4/224/403 7/221/404 
# 101 polygons

