# 3ds Max Wavefront OBJ Exporter v0.97b - (c)2007 guruware
# File Created: 28.06.2015 23:34:02

#
# object Chest_Low
#

v  0.6287 1.9923 1.6656
v  0.6287 1.9923 -2.3423
v  0.2460 1.9162 1.6656
v  0.2460 1.9162 -2.3423
v  -0.0784 1.6994 1.6656
v  -0.0784 1.6994 -2.3423
v  -0.2952 1.3750 1.6656
v  -0.2952 1.3750 -2.3423
v  -0.3713 1.0000 1.6652
v  -0.3713 0.9923 -2.3423
v  1.6287 1.0000 1.6652
v  1.6287 1.0000 -2.3419
v  1.5526 1.3750 1.6656
v  1.5526 1.3750 -2.3423
v  1.3358 1.6994 1.6656
v  1.3358 1.6994 -2.3423
v  1.0114 1.9162 1.6656
v  1.0114 1.9162 -2.3423
v  1.6287 -1.0000 -2.3419
v  1.6287 -1.0000 1.6652
v  -0.3713 -1.0000 1.6652
v  -0.3713 -1.0000 -2.3419
v  0.2954 -1.0000 1.6652
v  0.9620 1.0000 1.6652
v  0.2954 1.0000 1.6652
v  0.9620 -1.0000 1.6652
v  0.2954 0.9949 -2.3422
v  0.9620 0.9974 -2.3421
v  0.9620 -1.0000 -2.3419
v  0.2954 -1.0000 -2.3419
v  -0.3713 0.7815 1.6652
v  1.6287 0.7815 -2.3419
v  1.6287 0.7815 1.6652
v  -0.3713 0.7743 -2.3423
v  0.2954 0.7767 -2.3422
v  0.9620 0.7791 -2.3420
v  0.9620 0.7815 1.6652
v  0.2954 0.7815 1.6652
v  -0.3713 0.9923 -2.4423
v  1.6287 1.0000 -2.4419
v  0.2954 0.9948 -2.4422
v  0.9621 0.9974 -2.4421
v  1.6287 0.7507 -2.4419
v  -0.3713 0.7435 -2.4423
v  0.2954 0.7459 -2.4422
v  0.9621 0.7483 -2.4420
v  -0.3713 1.0000 1.7669
v  1.6287 1.0000 1.7652
v  0.9620 1.0000 1.7652
v  0.2954 1.0000 1.7652
v  -0.3713 0.7507 1.7669
v  1.6287 0.7507 1.7652
v  0.9620 0.7507 1.7652
v  0.2954 0.7507 1.7652
v  -0.4713 1.0000 1.6652
v  -0.4710 0.9923 -2.3424
v  -0.4713 0.7507 1.6652
v  -0.4710 0.7435 -2.3423
v  1.7287 1.0000 1.6652
v  1.7287 1.0000 -2.3419
v  1.7287 0.7507 -2.3419
v  1.7287 0.7507 1.6652
v  1.7287 1.0000 -2.4419
v  1.7287 0.7507 -2.4419
v  -0.4710 0.9923 -2.4424
v  -0.4710 0.7435 -2.4423
v  -0.4713 1.0000 1.7669
v  -0.4713 0.7507 1.7669
v  1.7292 1.0000 1.7652
v  1.7292 0.7507 1.7652
v  1.6287 -0.0734 -0.6543
v  1.6287 -0.0734 -0.0224
v  1.6287 0.5497 -0.6543
v  1.6287 0.5497 -0.0224
v  1.7032 -0.0734 -0.6543
v  1.7032 -0.0734 -0.0224
v  1.7032 0.5497 -0.6543
v  1.7032 0.5497 -0.0224
# 78 vertices

vn -0.0000 1.0000 0.0000
vn -0.0000 1.0000 0.0000
vn -0.3827 0.9239 0.0000
vn -0.3827 0.9239 0.0000
vn -0.3827 0.9239 0.0000
vn -0.3827 0.9239 0.0000
vn -0.7071 0.7071 0.0000
vn -0.7071 0.7071 0.0000
vn -0.7071 0.7071 0.0000
vn -0.7071 0.7071 0.0000
vn -0.9235 0.3836 -0.0001
vn -0.9235 0.3836 -0.0001
vn -0.9235 0.3836 -0.0001
vn -0.9235 0.3836 -0.0001
vn -0.9804 0.1970 -0.0002
vn -0.9804 0.1970 -0.0002
vn 0.9800 0.1989 -0.0000
vn 0.9800 0.1989 -0.0000
vn 0.9231 0.3846 -0.0000
vn 0.9231 0.3846 -0.0000
vn 0.9231 0.3846 -0.0000
vn 0.9231 0.3846 -0.0000
vn 0.7071 0.7071 -0.0000
vn 0.7071 0.7071 -0.0000
vn 0.3827 0.9239 -0.0000
vn 0.3827 0.9239 -0.0000
vn -0.0000 1.0000 0.0000
vn -0.0000 1.0000 0.0000
vn 0.7071 0.7071 -0.0000
vn 0.7071 0.7071 -0.0000
vn 0.3827 0.9239 -0.0000
vn 0.3827 0.9239 -0.0000
vn -1.0000 0.0000 0.0000
vn -1.0000 0.0000 0.0000
vn -1.0000 0.0000 0.0000
vn -1.0000 0.0000 0.0000
vn 0.0000 0.0000 1.0000
vn 0.0000 0.0000 1.0000
vn 0.0000 0.0000 1.0000
vn 0.0000 0.0000 1.0000
vn 0.0001 -0.0000 -1.0000
vn 0.0001 -0.0000 -1.0000
vn 0.0001 -0.0000 -1.0000
vn 0.0001 -0.0000 -1.0000
vn 0.0000 -1.0000 -0.0000
vn 0.0000 -1.0000 -0.0000
vn 0.0000 -1.0000 -0.0000
vn 0.0000 -1.0000 -0.0000
vn 0.0000 -1.0000 -0.0000
vn 0.0000 -1.0000 -0.0000
vn 0.0000 -1.0000 -0.0000
vn 0.0000 -1.0000 -0.0000
vn 1.0000 0.0000 -0.0000
vn 1.0000 0.0000 -0.0000
vn 1.0000 0.0000 -0.0000
vn 1.0000 0.0000 -0.0000
vn 0.0000 -1.0000 -0.0000
vn 0.0000 -1.0000 -0.0000
vn 0.0000 -1.0000 -0.0000
vn 0.0000 -1.0000 -0.0000
vn 0.0001 -0.0002 -1.0000
vn 0.0001 -0.0002 -1.0000
vn 0.0001 -0.0002 -1.0000
vn 0.0001 -0.0002 -1.0000
vn 0.0001 -0.0001 -1.0000
vn 0.0001 -0.0001 -1.0000
vn 0.0001 -0.0001 -1.0000
vn 0.0001 -0.0001 -1.0000
vn 0.0000 0.0000 1.0000
vn 0.0000 0.0000 1.0000
vn 0.0000 0.0000 1.0000
vn 0.0000 0.0000 1.0000
vn 0.0000 0.0000 1.0000
vn 0.0000 0.0000 1.0000
vn 0.0000 0.0000 1.0000
vn 0.0000 0.0000 1.0000
vn 0.0001 -0.0004 1.0000
vn 0.0001 -0.0004 1.0000
vn 0.0001 -0.0004 1.0000
vn -0.0000 -0.0004 1.0000
vn -0.0000 -0.0004 1.0000
vn -0.0000 -0.0004 1.0000
vn -0.0000 -0.0004 1.0000
vn -0.0001 -0.0003 -1.0000
vn -0.0001 -0.0003 -1.0000
vn -0.0001 -0.0003 -1.0000
vn 0.0005 -0.0003 1.0000
vn 0.0005 -0.0003 1.0000
vn 0.0005 -0.0003 1.0000
vn 0.0003 -0.0004 1.0000
vn 0.0003 -0.0004 1.0000
vn 0.0003 -0.0004 1.0000
vn 0.0001 -0.0002 -1.0000
vn 0.0001 -0.0002 -1.0000
vn 0.0001 -0.0002 -1.0000
vn 0.0001 -0.0002 -1.0000
vn 0.0000 -0.0011 1.0000
vn 0.0000 -0.0011 1.0000
vn 0.0000 -0.0011 1.0000
vn -0.0003 -0.0004 1.0000
vn -0.0003 -0.0004 1.0000
vn -0.0003 -0.0004 1.0000
vn -0.0005 -0.0003 1.0000
vn -0.0005 -0.0003 1.0000
vn -0.0005 -0.0003 1.0000
vn 0.0000 -0.0011 1.0000
vn 0.0000 -0.0011 1.0000
vn 0.0000 -0.0011 1.0000
vn -0.0002 -0.0003 -1.0000
vn -0.0002 -0.0003 -1.0000
vn -0.0002 -0.0003 -1.0000
vn -0.0003 -0.0002 -1.0000
vn -0.0003 -0.0002 -1.0000
vn -0.0003 -0.0002 -1.0000
vn 0.0002 -0.0010 -1.0000
vn 0.0002 -0.0010 -1.0000
vn 0.0002 -0.0010 -1.0000
vn 0.0001 -0.0001 -1.0000
vn 0.0001 -0.0001 -1.0000
vn 0.0001 -0.0001 -1.0000
vn 0.0002 -0.0001 -1.0000
vn 0.0002 -0.0001 -1.0000
vn 0.0002 -0.0001 -1.0000
vn 0.0002 -0.0000 -1.0000
vn 0.0002 -0.0000 -1.0000
vn 0.0002 -0.0000 -1.0000
vn -0.0000 -0.9557 -0.2942
vn -0.0000 -0.9557 -0.2942
vn -0.0000 -0.9557 -0.2942
vn -0.0000 -0.9557 -0.2942
vn -0.0000 -0.9557 -0.2942
vn -0.0000 -0.9557 -0.2942
vn -0.0000 -0.9557 -0.2942
vn -0.0000 -0.9557 -0.2942
vn 0.0034 -0.9557 0.2943
vn 0.0034 -0.9557 0.2943
vn 0.0034 -0.9557 0.2943
vn 0.0034 -0.9557 0.2943
vn 0.0034 -0.9557 0.2943
vn 0.0034 -0.9557 0.2943
vn 0.0034 -0.9557 0.2943
vn 0.0034 -0.9557 0.2943
vn -0.2942 -0.9557 0.0000
vn -0.2942 -0.9557 0.0000
vn -0.2942 -0.9557 0.0000
vn -0.2942 -0.9557 0.0000
vn 0.0034 -0.9557 0.2942
vn 0.0034 -0.9557 0.2942
vn 0.0034 -0.9557 0.2942
vn 0.0034 -0.9557 0.2942
vn -0.0004 -0.9564 -0.2920
vn -0.0004 -0.9564 -0.2920
vn -0.0004 -0.9564 -0.2920
vn -0.0004 -0.9564 -0.2920
vn 0.2946 -0.9556 0.0017
vn 0.2946 -0.9556 0.0017
vn 0.2946 -0.9556 0.0017
vn 0.2946 -0.9556 0.0017
vn 0.0002 -0.0001 -1.0000
vn 0.0002 -0.0001 -1.0000
vn 0.0002 -0.0001 -1.0000
vn 0.0002 -0.0001 -1.0000
vn 0.0002 -0.0001 -1.0000
vn 0.0002 -0.0001 -1.0000
vn 0.0002 -0.0001 -1.0000
vn 0.0002 -0.0001 -1.0000
vn 0.0002 -0.0000 -1.0000
vn 0.0002 -0.0000 -1.0000
vn 0.0002 -0.0000 -1.0000
vn 0.0002 -0.0000 -1.0000
vn -1.0000 -0.0000 -0.0002
vn -1.0000 -0.0000 -0.0002
vn -1.0000 -0.0000 -0.0002
vn -1.0000 -0.0000 -0.0002
vn -0.0039 1.0000 -0.0001
vn -0.0039 1.0000 -0.0001
vn -0.0039 1.0000 -0.0001
vn -0.0039 1.0000 -0.0001
vn -0.0000 0.0000 -1.0000
vn -0.0000 0.0000 -1.0000
vn -0.0000 0.0000 -1.0000
vn -0.0000 0.0000 -1.0000
vn -0.0039 1.0000 -0.0000
vn -0.0039 1.0000 -0.0000
vn -0.0039 1.0000 -0.0000
vn -0.0039 1.0000 -0.0000
vn -0.0039 1.0000 -0.0001
vn -0.0039 1.0000 -0.0001
vn -0.0039 1.0000 -0.0001
vn -0.0039 1.0000 -0.0001
vn 0.0000 0.0000 1.0000
vn 0.0000 0.0000 1.0000
vn 0.0000 0.0000 1.0000
vn 0.0000 0.0000 1.0000
vn 0.0000 0.0000 1.0000
vn 0.0000 0.0000 1.0000
vn 0.0000 0.0000 1.0000
vn 0.0000 0.0000 1.0000
vn 0.0025 0.0000 1.0000
vn 0.0025 0.0000 1.0000
vn 0.0025 0.0000 1.0000
vn 0.0025 0.0000 1.0000
vn 1.0000 0.0000 -0.0048
vn 1.0000 0.0000 -0.0048
vn 1.0000 0.0000 -0.0048
vn 1.0000 0.0000 -0.0048
vn 0.0000 0.0000 1.0000
vn 0.0000 0.0000 1.0000
vn 0.0000 0.0000 1.0000
vn 0.0000 0.0000 1.0000
vn 0.0000 1.0000 -0.0000
vn 0.0000 1.0000 -0.0000
vn 0.0000 1.0000 -0.0000
vn 0.0000 1.0000 -0.0000
vn 0.0000 1.0000 -0.0000
vn 0.0000 1.0000 -0.0000
vn 0.0000 1.0000 -0.0000
vn 0.0000 1.0000 -0.0000
vn 0.0000 1.0000 -0.0000
vn 0.0000 1.0000 -0.0000
vn 0.0000 1.0000 -0.0000
vn 0.0000 1.0000 -0.0000
vn -1.0000 -0.0000 -0.0001
vn -1.0000 -0.0000 -0.0001
vn -1.0000 -0.0000 -0.0001
vn -1.0000 -0.0000 -0.0001
vn 0.1508 -0.9770 0.1505
vn 0.1508 -0.9770 0.1505
vn 0.1508 -0.9770 0.1505
vn 0.1508 -0.9770 0.1505
vn 0.1505 -0.9775 -0.1480
vn 0.1505 -0.9775 -0.1480
vn 0.1505 -0.9775 -0.1480
vn 0.1505 -0.9775 -0.1480
vn 0.0000 1.0000 -0.0019
vn 0.0000 1.0000 -0.0019
vn 0.0000 1.0000 -0.0019
vn 0.0000 1.0000 -0.0019
vn 1.0000 0.0000 -0.0000
vn 1.0000 0.0000 -0.0000
vn 1.0000 0.0000 -0.0000
vn 1.0000 0.0000 -0.0000
vn -0.1501 -0.9772 -0.1501
vn -0.1501 -0.9772 -0.1501
vn -0.1501 -0.9772 -0.1501
vn -0.1501 -0.9772 -0.1501
vn -0.1504 -0.9771 0.1504
vn -0.1504 -0.9771 0.1504
vn -0.1504 -0.9771 0.1504
vn -0.1504 -0.9771 0.1504
vn 0.0000 1.0000 -0.0000
vn 0.0000 1.0000 -0.0000
vn 0.0000 1.0000 -0.0000
vn 0.0000 1.0000 -0.0000
vn 0.0005 -0.0001 -1.0000
vn 0.0005 -0.0001 -1.0000
vn 0.0005 -0.0001 -1.0000
vn 0.0005 -0.0001 -1.0000
vn 1.0000 0.0000 -0.0000
vn 1.0000 0.0000 -0.0000
vn 1.0000 0.0000 -0.0000
vn 1.0000 0.0000 -0.0000
vn 0.0000 1.0000 -0.0000
vn 0.0000 1.0000 -0.0000
vn 0.0000 1.0000 -0.0000
vn 0.0000 1.0000 -0.0000
vn -0.0000 1.0000 -0.0001
vn -0.0000 1.0000 -0.0001
vn -0.0000 1.0000 -0.0001
vn -0.0000 1.0000 -0.0001
vn -1.0000 0.0000 0.0000
vn -1.0000 0.0000 0.0000
vn -1.0000 0.0000 0.0000
vn -1.0000 0.0000 0.0000
vn 0.0000 1.0000 -0.0000
vn 0.0000 1.0000 -0.0000
vn 0.0000 1.0000 -0.0000
vn 0.0000 1.0000 -0.0000
vn 0.0000 0.0000 1.0000
vn 0.0000 0.0000 1.0000
vn 0.0000 0.0000 1.0000
vn 0.0000 0.0000 1.0000
vn 0.0000 1.0000 -0.0000
vn 0.0000 1.0000 -0.0000
vn 0.0000 1.0000 -0.0000
vn 0.0000 1.0000 -0.0000
vn 0.0000 1.0000 -0.0000
vn 0.0000 1.0000 -0.0000
vn 0.0000 1.0000 -0.0000
vn 0.0000 1.0000 -0.0000
vn 1.0000 0.0000 -0.0000
vn 1.0000 0.0000 -0.0000
vn 1.0000 0.0000 -0.0000
vn 1.0000 0.0000 -0.0000
vn 1.0000 0.0000 -0.0000
vn 1.0000 0.0000 -0.0000
vn 1.0000 0.0000 -0.0000
vn 1.0000 0.0000 -0.0000
vn 1.0000 0.0000 -0.0000
vn 1.0000 0.0000 -0.0000
vn 1.0000 0.0000 -0.0000
vn 1.0000 0.0000 -0.0000
vn 1.0000 0.0000 -0.0000
vn 1.0000 0.0000 -0.0000
vn 1.0000 0.0000 -0.0000
vn 1.0000 0.0000 -0.0000
vn -0.0000 0.0000 -1.0000
vn -0.0000 0.0000 -1.0000
vn -0.0000 0.0000 -1.0000
vn -0.0000 0.0000 -1.0000
vn 0.0000 0.0000 1.0000
vn 0.0000 0.0000 1.0000
vn 0.0000 0.0000 1.0000
vn 0.0000 0.0000 1.0000
vn 0.0000 -1.0000 -0.0000
vn 0.0000 -1.0000 -0.0000
vn 0.0000 -1.0000 -0.0000
vn 0.0000 -1.0000 -0.0000
# 318 vertex normals

vt 0.2093 0.0122 0.7807
vt 0.2093 0.4713 0.7807
vt 0.1646 0.0122 -0.7807
vt 0.1646 0.4713 -0.7807
vt 0.1199 0.0122 -0.7807
vt 0.1199 0.4713 -0.7807
vt 0.0752 0.0122 -0.7807
vt 0.0752 0.4713 -0.7807
vt 0.0314 0.0123 -0.7807
vt 0.0305 0.4713 -0.7807
vt 0.3872 0.0123 -0.7807
vt 0.3872 0.4713 -0.7807
vt 0.3434 0.0122 -0.7807
vt 0.3434 0.4713 -0.7807
vt 0.2987 0.0122 -0.7807
vt 0.2987 0.4713 -0.7807
vt 0.2540 0.0122 -0.7807
vt 0.2540 0.4713 -0.7807
vt 0.8312 0.0122 -0.1999
vt 0.0305 0.4880 -0.1110
vt 0.4039 0.0138 0.0000
vt 0.4073 0.4727 0.0000
vt 0.6274 0.4114 0.0000
vt 0.8487 0.3351 -0.2920
vt 0.8487 0.4114 -0.2920
vt 0.1069 0.4880 0.1110
vt 0.9628 0.1650 -0.2920
vt 0.9628 0.0886 -0.2920
vt 0.8315 0.0886 -0.3551
vt 0.1833 0.9469 -0.1110
vt 0.6079 0.0122 0.0000
vt 0.6272 0.0130 -0.3551
vt 0.8320 0.2594 0.0000
vt 0.6105 0.4713 0.0000
vt 0.6283 0.1657 -0.3551
vt 0.6277 0.0893 -0.3551
vt 0.8317 0.3358 0.0000
vt 0.8315 0.4122 0.0000
vt 0.7085 0.7457 -0.2940
vt 0.7096 0.5166 -0.2940
vt 0.7088 0.6693 -0.2940
vt 0.7092 0.5930 -0.2940
vt 0.7381 0.5169 -0.2940
vt 0.7370 0.7460 -0.2940
vt 0.7374 0.6696 -0.2940
vt 0.7378 0.5932 -0.2940
vt 0.8075 0.7458 -0.2920
vt 0.8076 0.5167 -0.2920
vt 0.8076 0.5931 -0.2920
vt 0.8075 0.6694 -0.2920
vt 0.7790 0.7458 -0.2920
vt 0.7790 0.5167 -0.2920
vt 0.7790 0.5930 -0.2920
vt 0.7790 0.6694 -0.2920
vt 0.3267 0.5007 -0.5582
vt 0.3167 0.9597 -0.5582
vt 0.2981 0.5001 -0.5582
vt 0.2882 0.9592 -0.5582
vt 0.6387 0.5170 -0.5597
vt 0.6398 0.9761 -0.5597
vt 0.6684 0.9761 -0.5597
vt 0.6672 0.5169 -0.5597
vt 0.7097 0.5052 0.2940
vt 0.7382 0.5054 -0.2940
vt 0.7084 0.7571 -0.2940
vt 0.2881 0.9707 -0.5582
vt 0.8075 0.7572 0.2920
vt 0.7790 0.7572 -0.2920
vt 0.8076 0.5052 0.2920
vt 0.6670 0.5055 0.4479
vt 0.5018 0.7551 -0.1110
vt 0.5018 0.6827 -0.1110
vt 0.4304 0.7551 -0.1110
vt 0.4304 0.6827 -0.1110
vt 0.9157 0.5861 0.3184
vt 0.9157 0.5137 0.3184
vt 0.8443 0.5861 -0.3184
vt 0.8443 0.5137 -0.3184
vt 0.9623 0.3733 -0.2920
vt 0.8487 0.1264 -0.2920
vt 0.9536 0.4171 -0.2920
vt 0.8572 0.1702 -0.2920
vt 0.9288 0.4542 -0.2920
vt 0.8819 0.2075 -0.2920
vt 0.8916 0.4791 -0.2920
vt 0.9190 0.2324 -0.2920
vt 0.8487 0.4878 0.2920
vt 0.3381 0.5010 -0.5582
vt 0.8192 0.7458 -0.2920
vt 0.9628 0.2413 0.2902
vt 0.3281 0.9599 -0.5582
vt 0.6970 0.7456 -0.2940
vt 0.6272 0.5171 -0.5597
vt 0.8487 0.2587 0.2920
vt 0.8191 0.5167 -0.2920
vt 0.6284 0.9761 -0.5597
vt 0.9628 0.0122 0.2920
vt 0.6981 0.5166 -0.2940
vt 0.8916 0.2674 -0.2920
vt 0.9198 0.0208 -0.2920
vt 0.9288 0.2923 -0.2920
vt 0.8825 0.0455 -0.2920
vt 0.9536 0.3294 -0.2920
vt 0.8576 0.0826 -0.2920
vt 0.6079 0.9484 0.1110
vt 0.0305 0.9469 -0.1110
vt 0.6079 0.4894 0.1110
vt 0.6280 0.2587 0.0000
vt 0.2596 0.4880 -0.1110
vt 0.6272 0.4878 0.0000
vt 0.2596 0.9469 -0.1110
vt 0.8320 0.2413 -0.3551
vt 0.1833 0.4880 -0.1110
vt 0.8190 0.5931 -0.2920
vt 0.8190 0.6694 -0.2920
vt 0.6277 0.3351 0.0000
vt 0.6974 0.6693 -0.2940
vt 0.6978 0.5929 -0.2940
vt 0.1069 0.9469 0.1110
vt 0.8318 0.1650 -0.3551
vt 0.8312 0.4885 0.0000
vt 0.2861 0.5000 -0.5582
vt 0.7668 0.7457 -0.2920
vt 0.4039 0.9484 -0.1110
vt 0.7501 0.5169 -0.2940
vt 0.6803 0.9759 -0.5597
vt 0.4039 0.4894 -0.1110
vt 0.6792 0.5170 -0.5597
vt 0.7671 0.5167 -0.2920
vt 0.6288 0.2421 0.3551
vt 0.2763 0.9588 -0.5582
vt 0.7489 0.7460 -0.2940
vt 0.7493 0.6696 -0.2940
vt 0.7497 0.5933 -0.2940
vt 0.7670 0.5930 -0.2920
vt 0.7670 0.6694 -0.2920
vt 0.3279 0.9714 -0.5582
vt 0.6284 0.9875 -0.5597
vt 0.6796 0.9878 -0.5597
vt 0.2768 0.9707 -0.5582
vt 0.3383 0.4894 0.5582
vt 0.6272 0.5057 -0.5597
vt 0.2872 0.4880 -0.5582
vt 0.6784 0.5052 -0.5597
vt 0.6398 0.9875 0.5597
vt 0.6682 0.9875 -0.5597
vt 0.3165 0.9711 0.5548
vt 0.7369 0.7574 0.2336
vt 0.3269 0.4891 -0.5582
vt 0.2985 0.4885 -0.5582
vt 0.6386 0.5056 -0.5597
vt 0.7791 0.5052 -0.2920
vt 0.9157 0.5946 -0.3184
vt 0.9242 0.5861 -0.3184
vt 0.9242 0.5137 -0.3184
vt 0.9157 0.5052 -0.3184
vt 0.8443 0.5946 -0.3184
vt 0.8358 0.5861 -0.3184
vt 0.8443 0.5052 -0.3184
vt 0.8358 0.5137 -0.3184
# 160 texture coords

g Chest_Low
s off
f 1/1/1 2/2/2 4/4/3 3/3/4 
f 3/3/5 4/4/6 6/6/7 5/5/8 
f 5/5/9 6/6/10 8/8/11 7/7/12 
f 7/7/13 8/8/14 10/10/15 9/9/16 
f 11/11/17 12/12/18 14/14/19 13/13/20 
f 13/13/21 14/14/22 16/16/23 15/15/24 
f 17/17/25 18/18/26 2/2/27 1/1/28 
f 15/15/29 16/16/30 18/18/31 17/17/32 
f 31/31/33 34/34/34 22/22/35 21/21/36 
f 38/38/37 31/121/38 21/110/39 23/23/40 
f 36/36/41 32/32/42 19/19/43 29/29/44 
f 29/119/45 26/26/46 23/113/47 30/30/48 
f 30/30/49 23/113/50 21/109/51 22/111/52 
f 32/124/53 33/127/54 74/74/55 73/73/56 
f 19/106/57 20/20/58 26/26/59 29/119/60 
f 34/130/61 35/35/62 30/120/63 22/112/64 
f 35/35/65 36/36/66 29/29/67 30/120/68 
f 33/33/69 37/37/70 26/116/71 20/108/72 
f 37/37/73 38/38/74 23/23/75 26/116/76 
f 1/79/77 3/81/78 25/25/79 
f 17/103/80 1/79/81 25/25/82 24/24/83 
f 2/80/84 18/104/85 28/28/86 
f 7/85/87 25/25/88 5/83/89 
f 5/83/90 25/25/91 3/81/92 
f 4/82/93 2/80/94 28/28/95 27/27/96 
f 9/87/97 25/25/98 7/85/99 
f 17/103/100 24/24/101 15/101/102 
f 15/101/103 24/24/104 13/99/105 
f 13/99/106 24/24/107 11/94/108 
f 16/102/109 28/28/110 18/104/111 
f 14/100/112 28/28/113 16/102/114 
f 12/97/115 28/28/116 14/100/117 
f 4/82/118 27/27/119 6/84/120 
f 6/84/121 27/27/122 8/86/123 
f 8/86/124 27/27/125 10/90/126 
f 38/136/127 37/135/128 53/53/129 54/54/130 
f 37/135/131 33/129/132 52/52/133 53/53/134 
f 36/134/135 35/133/136 45/45/137 46/46/138 
f 35/133/139 34/132/140 44/44/141 45/45/142 
f 33/128/143 32/126/144 61/61/145 62/62/146 
f 32/125/147 36/134/148 46/46/149 43/43/150 
f 31/123/151 38/136/152 54/54/153 51/51/154 
f 34/131/155 31/122/156 57/57/157 58/58/158 
f 41/41/159 42/42/160 46/46/161 45/45/162 
f 39/39/163 41/41/164 45/45/165 44/44/166 
f 42/42/167 40/40/168 43/43/169 46/46/170 
f 58/58/171 56/56/172 65/147/173 66/66/174 
f 27/117/175 28/118/176 42/42/177 41/41/178 
f 43/43/179 40/40/180 63/63/181 64/64/182 
f 28/118/183 12/98/184 40/40/185 42/42/186 
f 10/92/187 27/117/188 41/41/189 39/39/190 
f 49/49/191 50/50/192 54/54/193 53/53/194 
f 48/48/195 49/49/196 53/53/197 52/52/198 
f 50/50/199 47/47/200 51/51/201 54/54/202 
f 62/62/203 59/59/204 69/151/205 70/70/206 
f 51/51/207 47/47/208 67/67/209 68/68/210 
f 11/95/211 24/114/212 49/49/213 48/48/214 
f 24/114/215 25/115/216 50/50/217 49/49/218 
f 25/115/219 9/89/220 47/47/221 50/50/222 
f 55/55/223 56/56/224 58/58/225 57/57/226 
f 44/140/227 34/131/228 58/58/229 66/66/230 
f 57/57/231 31/122/232 51/143/233 68/150/234 
f 9/88/235 10/91/236 56/56/237 55/55/238 
f 60/60/239 59/59/240 62/62/241 61/61/242 
f 52/144/243 33/128/244 62/62/245 70/70/246 
f 61/61/247 32/126/248 43/139/249 64/146/250 
f 12/96/251 11/93/252 59/59/253 60/60/254 
f 39/39/255 44/44/256 66/148/257 65/65/258 
f 60/60/259 61/61/260 64/146/261 63/145/262 
f 12/96/263 60/60/264 63/145/265 40/138/266 
f 10/91/267 39/137/268 65/147/269 56/56/270 
f 55/55/271 57/57/272 68/150/273 67/149/274 
f 9/88/275 55/55/276 67/149/277 47/141/278 
f 48/48/279 52/52/280 70/152/281 69/69/282 
f 11/93/283 48/142/284 69/151/285 59/59/286 
f 73/158/287 74/160/288 78/78/289 77/77/290 
f 19/105/291 32/124/292 73/73/293 71/71/294 
f 33/127/295 20/107/296 72/72/297 74/74/298 
f 20/107/299 19/105/300 71/71/301 72/72/302 
f 77/77/303 78/78/304 76/76/305 75/75/306 
f 71/153/307 73/157/308 77/77/309 75/75/310 
f 74/159/311 72/156/312 76/76/313 78/78/314 
f 72/155/315 71/154/316 75/75/317 76/76/318 
# 69 polygons - 14 triangles

